<svg width="14" height="16" viewBox="0 0 14 16" fill="none" xmlns="http://www.w3.org/2000/svg">
<path d="M1.82844 8.4853L7.48529 2.82845C8.65686 1.65688 10.5564 1.65688 11.7279 2.82845C12.8995 4.00002 12.8995 5.89952 11.7279 7.07109L5.01042 13.7886C4.42463 14.3744 3.47488 14.3744 2.8891 13.7886C2.30331 13.2028 2.30331 12.2531 2.8891 11.6673L8.89951 5.65687C9.09477 5.46161 9.09477 5.14503 8.89951 4.94977C8.70424 4.75451 8.38766 4.75451 8.1924 4.94977L2.18199 10.9602C1.20568 11.9365 1.20568 13.5194 2.18199 14.4957C3.1583 15.472 4.74121 15.472 5.71752 14.4957L12.435 7.77819C13.9971 6.2161 13.9971 3.68344 12.435 2.12134C10.8729 0.559244 8.34028 0.559244 6.77818 2.12134L1.12133 7.77819C0.926068 7.97346 0.926068 8.29004 1.12133 8.4853C1.31659 8.68056 1.63318 8.68056 1.82844 8.4853Z" fill="#605E5C"/>
</svg>
